<svg width="1163" height="434" viewBox="0 0 1163 434" fill="none" xmlns="http://www.w3.org/2000/svg">
<g opacity="0.05">
<mask id="mask0_89_344" style="mask-type:luminance" maskUnits="userSpaceOnUse" x="609" y="47" width="116" height="117">
<path d="M609.378 47.7417L609.378 163.233L724.87 163.233L724.87 47.7417L609.378 47.7417Z" fill="white"/>
</mask>
<g mask="url(#mask0_89_344)">
<path d="M598.266 -6.76877L756.142 151.106L757.927 149.321L600.052 -8.55464L598.266 -6.76877Z" fill="#EEEEEE"/>
<path d="M605.926 -14.4045L763.801 143.471L765.587 141.685L607.712 -16.1904L605.926 -14.4045Z" fill="#EEEEEE"/>
<path d="M613.557 -22.0402L771.432 135.835L773.218 134.049L615.343 -23.8262L613.557 -22.0402Z" fill="#EEEEEE"/>
<path d="M621.189 -29.6491L779.064 128.226L780.85 126.44L622.975 -31.435L621.189 -29.6491Z" fill="#EEEEEE"/>
<path d="M628.821 -37.2849L786.696 120.59L788.482 118.804L630.607 -39.0708L628.821 -37.2849Z" fill="#EEEEEE"/>
<path d="M560.108 31.4217L717.983 189.297L719.769 187.511L561.894 29.6358L560.108 31.4217Z" fill="#EEEEEE"/>
<path d="M567.74 23.7864L725.615 181.662L727.401 179.876L569.525 22.0005L567.74 23.7864Z" fill="#EEEEEE"/>
<path d="M575.371 16.1507L733.247 174.026L735.032 172.24L577.157 14.3648L575.371 16.1507Z" fill="#EEEEEE"/>
<path d="M583.003 8.54178L740.878 166.417L742.664 164.631L584.789 6.75591L583.003 8.54178Z" fill="#EEEEEE"/>
<path d="M590.635 0.866977L748.51 158.742L750.296 156.956L592.421 -0.918895L590.635 0.866977Z" fill="#EEEEEE"/>
<path d="M521.921 69.5745L679.796 227.45L681.582 225.664L523.707 67.7886L521.921 69.5745Z" fill="#EEEEEE"/>
<path d="M529.581 61.9388L687.456 219.814L689.242 218.028L531.367 60.1529L529.581 61.9388Z" fill="#EEEEEE"/>
<path d="M537.213 54.303L695.088 212.178L696.874 210.392L538.999 52.5171L537.213 54.303Z" fill="#EEEEEE"/>
<path d="M544.845 46.6941L702.72 204.569L704.506 202.783L546.631 44.9083L544.845 46.6941Z" fill="#EEEEEE"/>
<path d="M552.476 39.0579L710.351 196.933L712.137 195.147L554.262 37.272L552.476 39.0579Z" fill="#EEEEEE"/>
</g>
<mask id="mask1_89_344" style="mask-type:luminance" maskUnits="userSpaceOnUse" x="998" y="239" width="112" height="115">
<path d="M998.153 295.226L998.153 298.308C998.153 328.986 1023.02 353.856 1053.7 353.856C1084.38 353.856 1109.25 328.986 1109.25 298.308L1109.25 295.226C1109.25 264.547 1084.38 239.677 1053.7 239.677C1023.02 239.677 998.153 264.547 998.153 295.226Z" fill="white"/>
</mask>
<g mask="url(#mask1_89_344)">
<path d="M1014.38 245.99C1014.38 244.961 1013.55 244.126 1012.52 244.126C1011.49 244.126 1010.65 244.961 1010.65 245.99C1010.65 247.02 1011.49 247.854 1012.52 247.854C1013.55 247.854 1014.38 247.02 1014.38 245.99Z" fill="#DDDDDD"/>
<path d="M1032.77 245.99C1032.77 244.961 1031.94 244.126 1030.91 244.126C1029.88 244.126 1029.05 244.961 1029.05 245.99C1029.05 247.02 1029.88 247.854 1030.91 247.854C1031.94 247.854 1032.77 247.02 1032.77 245.99Z" fill="#DDDDDD"/>
<path d="M1051.14 245.99C1051.14 244.961 1050.31 244.126 1049.28 244.126C1048.25 244.126 1047.41 244.961 1047.41 245.99C1047.41 247.02 1048.25 247.854 1049.28 247.854C1050.31 247.854 1051.14 247.02 1051.14 245.99Z" fill="#DDDDDD"/>
<path d="M1069.51 245.99C1069.51 244.961 1068.67 244.126 1067.64 244.126C1066.61 244.126 1065.78 244.961 1065.78 245.99C1065.78 247.02 1066.61 247.854 1067.64 247.854C1068.67 247.854 1069.51 247.02 1069.51 245.99Z" fill="#DDDDDD"/>
<path d="M1087.88 245.99C1087.88 244.961 1087.04 244.126 1086.01 244.126C1084.98 244.126 1084.15 244.961 1084.15 245.99C1084.15 247.02 1084.98 247.854 1086.01 247.854C1087.04 247.854 1087.88 247.02 1087.88 245.99Z" fill="#DDDDDD"/>
<path d="M1106.24 245.99C1106.24 244.961 1105.41 244.126 1104.38 244.126C1103.35 244.126 1102.51 244.961 1102.51 245.99C1102.51 247.02 1103.35 247.854 1104.38 247.854C1105.41 247.854 1106.24 247.02 1106.24 245.99Z" fill="#DDDDDD"/>
<path d="M1005.21 255.186C1005.21 254.157 1004.38 253.322 1003.35 253.322C1002.32 253.322 1001.48 254.157 1001.48 255.186C1001.48 256.216 1002.32 257.05 1003.35 257.05C1004.38 257.05 1005.21 256.216 1005.21 255.186Z" fill="#DDDDDD"/>
<path d="M1014.38 264.357C1014.38 263.328 1013.55 262.493 1012.52 262.493C1011.49 262.493 1010.65 263.328 1010.65 264.357C1010.65 265.387 1011.49 266.221 1012.52 266.221C1013.55 266.221 1014.38 265.387 1014.38 264.357Z" fill="#DDDDDD"/>
<path d="M1023.58 255.186C1023.58 254.157 1022.74 253.322 1021.71 253.322C1020.68 253.322 1019.85 254.157 1019.85 255.186C1019.85 256.216 1020.68 257.05 1021.71 257.05C1022.74 257.05 1023.58 256.216 1023.58 255.186Z" fill="#DDDDDD"/>
<path d="M1032.77 264.357C1032.77 263.328 1031.94 262.493 1030.91 262.493C1029.88 262.493 1029.05 263.328 1029.05 264.357C1029.05 265.387 1029.88 266.221 1030.91 266.221C1031.94 266.221 1032.77 265.387 1032.77 264.357Z" fill="#DDDDDD"/>
<path d="M1041.94 255.186C1041.94 254.157 1041.11 253.322 1040.08 253.322C1039.05 253.322 1038.22 254.157 1038.22 255.186C1038.22 256.216 1039.05 257.05 1040.08 257.05C1041.11 257.05 1041.94 256.216 1041.94 255.186Z" fill="#DDDDDD"/>
<path d="M1051.14 264.357C1051.14 263.328 1050.31 262.493 1049.28 262.493C1048.25 262.493 1047.41 263.328 1047.41 264.357C1047.41 265.387 1048.25 266.221 1049.28 266.221C1050.31 266.221 1051.14 265.387 1051.14 264.357Z" fill="#DDDDDD"/>
<path d="M1060.31 255.186C1060.31 254.157 1059.48 253.322 1058.45 253.322C1057.42 253.322 1056.58 254.157 1056.58 255.186C1056.58 256.216 1057.42 257.05 1058.45 257.05C1059.48 257.05 1060.31 256.216 1060.31 255.186Z" fill="#DDDDDD"/>
<path d="M1069.51 264.357C1069.51 263.328 1068.67 262.493 1067.64 262.493C1066.61 262.493 1065.78 263.328 1065.78 264.357C1065.78 265.387 1066.61 266.221 1067.64 266.221C1068.67 266.221 1069.51 265.387 1069.51 264.357Z" fill="#DDDDDD"/>
<path d="M1078.7 255.186C1078.7 254.157 1077.87 253.322 1076.84 253.322C1075.81 253.322 1074.98 254.157 1074.98 255.186C1074.98 256.216 1075.81 257.05 1076.84 257.05C1077.87 257.05 1078.7 256.216 1078.7 255.186Z" fill="#DDDDDD"/>
<path d="M1087.88 264.357C1087.88 263.328 1087.04 262.493 1086.01 262.493C1084.98 262.493 1084.15 263.328 1084.15 264.357C1084.15 265.387 1084.98 266.221 1086.01 266.221C1087.04 266.221 1087.88 265.387 1087.88 264.357Z" fill="#DDDDDD"/>
<path d="M1097.07 255.186C1097.07 254.157 1096.24 253.322 1095.21 253.322C1094.18 253.322 1093.34 254.157 1093.34 255.186C1093.34 256.216 1094.18 257.05 1095.21 257.05C1096.24 257.05 1097.07 256.216 1097.07 255.186Z" fill="#DDDDDD"/>
<path d="M1106.24 264.357C1106.24 263.328 1105.41 262.493 1104.38 262.493C1103.35 262.493 1102.51 263.328 1102.51 264.357C1102.51 265.387 1103.35 266.221 1104.38 266.221C1105.41 266.221 1106.24 265.387 1106.24 264.357Z" fill="#DDDDDD"/>
<path d="M1005.21 273.553C1005.21 272.523 1004.38 271.689 1003.35 271.689C1002.32 271.689 1001.48 272.523 1001.48 273.553C1001.48 274.582 1002.32 275.417 1003.35 275.417C1004.38 275.417 1005.21 274.582 1005.21 273.553Z" fill="#DDDDDD"/>
<path d="M1014.38 282.724C1014.38 281.694 1013.55 280.86 1012.52 280.86C1011.49 280.86 1010.65 281.694 1010.65 282.724C1010.65 283.753 1011.49 284.588 1012.52 284.588C1013.55 284.588 1014.38 283.753 1014.38 282.724Z" fill="#DDDDDD"/>
<path d="M1023.58 273.553C1023.58 272.523 1022.74 271.689 1021.71 271.689C1020.68 271.689 1019.85 272.523 1019.85 273.553C1019.85 274.582 1020.68 275.417 1021.71 275.417C1022.74 275.417 1023.58 274.582 1023.58 273.553Z" fill="#DDDDDD"/>
<path d="M1032.77 282.724C1032.77 281.694 1031.94 280.86 1030.91 280.86C1029.88 280.86 1029.05 281.694 1029.05 282.724C1029.05 283.753 1029.88 284.588 1030.91 284.588C1031.94 284.588 1032.77 283.753 1032.77 282.724Z" fill="#DDDDDD"/>
<path d="M1041.94 273.553C1041.94 272.523 1041.11 271.689 1040.08 271.689C1039.05 271.689 1038.22 272.523 1038.22 273.553C1038.22 274.582 1039.05 275.417 1040.08 275.417C1041.11 275.417 1041.94 274.582 1041.94 273.553Z" fill="#DDDDDD"/>
<path d="M1051.14 282.724C1051.14 281.694 1050.31 280.86 1049.28 280.86C1048.25 280.86 1047.41 281.694 1047.41 282.724C1047.41 283.753 1048.25 284.588 1049.28 284.588C1050.31 284.588 1051.14 283.753 1051.14 282.724Z" fill="#DDDDDD"/>
<path d="M1060.31 273.553C1060.31 272.523 1059.48 271.689 1058.45 271.689C1057.42 271.689 1056.58 272.523 1056.58 273.553C1056.58 274.582 1057.42 275.417 1058.45 275.417C1059.48 275.417 1060.31 274.582 1060.31 273.553Z" fill="#DDDDDD"/>
<path d="M1069.51 282.724C1069.51 281.694 1068.67 280.86 1067.64 280.86C1066.61 280.86 1065.78 281.694 1065.78 282.724C1065.78 283.753 1066.61 284.588 1067.64 284.588C1068.67 284.588 1069.51 283.753 1069.51 282.724Z" fill="#DDDDDD"/>
<path d="M1078.7 273.553C1078.7 272.523 1077.87 271.689 1076.84 271.689C1075.81 271.689 1074.98 272.523 1074.98 273.553C1074.98 274.582 1075.81 275.417 1076.84 275.417C1077.87 275.417 1078.7 274.582 1078.7 273.553Z" fill="#DDDDDD"/>
<path d="M1087.88 282.724C1087.88 281.694 1087.04 280.86 1086.01 280.86C1084.98 280.86 1084.15 281.694 1084.15 282.724C1084.15 283.753 1084.98 284.588 1086.01 284.588C1087.04 284.588 1087.88 283.753 1087.88 282.724Z" fill="#DDDDDD"/>
<path d="M1097.07 273.553C1097.07 272.523 1096.24 271.689 1095.21 271.689C1094.18 271.689 1093.34 272.523 1093.34 273.553C1093.34 274.582 1094.18 275.417 1095.21 275.417C1096.24 275.417 1097.07 274.582 1097.07 273.553Z" fill="#DDDDDD"/>
<path d="M1106.24 282.724C1106.24 281.694 1105.41 280.86 1104.38 280.86C1103.35 280.86 1102.51 281.694 1102.51 282.724C1102.51 283.753 1103.35 284.588 1104.38 284.588C1105.41 284.588 1106.24 283.753 1106.24 282.724Z" fill="#DDDDDD"/>
<path d="M1005.21 291.92C1005.21 290.89 1004.38 290.056 1003.35 290.056C1002.32 290.056 1001.48 290.89 1001.48 291.92C1001.48 292.949 1002.32 293.784 1003.35 293.784C1004.38 293.784 1005.21 292.949 1005.21 291.92Z" fill="#DDDDDD"/>
<path d="M1014.38 301.116C1014.38 300.086 1013.55 299.252 1012.52 299.252C1011.49 299.252 1010.65 300.086 1010.65 301.116C1010.65 302.145 1011.49 302.98 1012.52 302.98C1013.55 302.98 1014.38 302.145 1014.38 301.116Z" fill="#DDDDDD"/>
<path d="M1023.58 291.92C1023.58 290.89 1022.74 290.056 1021.71 290.056C1020.68 290.056 1019.85 290.89 1019.85 291.92C1019.85 292.949 1020.68 293.784 1021.71 293.784C1022.74 293.784 1023.58 292.949 1023.58 291.92Z" fill="#DDDDDD"/>
<path d="M1032.77 301.116C1032.77 300.086 1031.94 299.252 1030.91 299.252C1029.88 299.252 1029.05 300.086 1029.05 301.116C1029.05 302.145 1029.88 302.98 1030.91 302.98C1031.94 302.98 1032.77 302.145 1032.77 301.116Z" fill="#DDDDDD"/>
<path d="M1041.94 291.92C1041.94 290.89 1041.11 290.056 1040.08 290.056C1039.05 290.056 1038.22 290.89 1038.22 291.92C1038.22 292.949 1039.05 293.784 1040.08 293.784C1041.11 293.784 1041.94 292.949 1041.94 291.92Z" fill="#DDDDDD"/>
<path d="M1051.14 301.116C1051.14 300.086 1050.31 299.252 1049.28 299.252C1048.25 299.252 1047.41 300.086 1047.41 301.116C1047.41 302.145 1048.25 302.98 1049.28 302.98C1050.31 302.98 1051.14 302.145 1051.14 301.116Z" fill="#DDDDDD"/>
<path d="M1060.31 291.92C1060.31 290.89 1059.48 290.056 1058.45 290.056C1057.42 290.056 1056.58 290.89 1056.58 291.92C1056.58 292.949 1057.42 293.784 1058.45 293.784C1059.48 293.784 1060.31 292.949 1060.31 291.92Z" fill="#DDDDDD"/>
<path d="M1069.51 301.116C1069.51 300.086 1068.67 299.252 1067.64 299.252C1066.61 299.252 1065.78 300.086 1065.78 301.116C1065.78 302.145 1066.61 302.98 1067.64 302.98C1068.67 302.98 1069.51 302.145 1069.51 301.116Z" fill="#DDDDDD"/>
<path d="M1078.7 291.92C1078.7 290.89 1077.87 290.056 1076.84 290.056C1075.81 290.056 1074.98 290.89 1074.98 291.92C1074.98 292.949 1075.81 293.784 1076.84 293.784C1077.87 293.784 1078.7 292.949 1078.7 291.92Z" fill="#DDDDDD"/>
<path d="M1087.88 301.116C1087.88 300.086 1087.04 299.252 1086.01 299.252C1084.98 299.252 1084.15 300.086 1084.15 301.116C1084.15 302.145 1084.98 302.98 1086.01 302.98C1087.04 302.98 1087.88 302.145 1087.88 301.116Z" fill="#DDDDDD"/>
<path d="M1097.07 291.92C1097.07 290.89 1096.24 290.056 1095.21 290.056C1094.18 290.056 1093.34 290.89 1093.34 291.92C1093.34 292.949 1094.18 293.784 1095.21 293.784C1096.24 293.784 1097.07 292.949 1097.07 291.92Z" fill="#DDDDDD"/>
<path d="M1106.24 301.116C1106.24 300.086 1105.41 299.252 1104.38 299.252C1103.35 299.252 1102.51 300.086 1102.51 301.116C1102.51 302.145 1103.35 302.98 1104.38 302.98C1105.41 302.98 1106.24 302.145 1106.24 301.116Z" fill="#DDDDDD"/>
<path d="M1005.21 310.287C1005.21 309.257 1004.38 308.423 1003.35 308.423C1002.32 308.423 1001.48 309.257 1001.48 310.287C1001.48 311.316 1002.32 312.151 1003.35 312.151C1004.38 312.151 1005.21 311.316 1005.21 310.287Z" fill="#DDDDDD"/>
<path d="M1014.38 319.483C1014.38 318.453 1013.55 317.619 1012.52 317.619C1011.49 317.619 1010.65 318.453 1010.65 319.483C1010.65 320.512 1011.49 321.347 1012.52 321.347C1013.55 321.347 1014.38 320.512 1014.38 319.483Z" fill="#DDDDDD"/>
<path d="M1023.58 310.287C1023.58 309.257 1022.74 308.423 1021.71 308.423C1020.68 308.423 1019.85 309.257 1019.85 310.287C1019.85 311.316 1020.68 312.151 1021.71 312.151C1022.74 312.151 1023.58 311.316 1023.58 310.287Z" fill="#DDDDDD"/>
<path d="M1032.77 319.483C1032.77 318.453 1031.94 317.619 1030.91 317.619C1029.88 317.619 1029.05 318.453 1029.05 319.483C1029.05 320.512 1029.88 321.347 1030.91 321.347C1031.94 321.347 1032.77 320.512 1032.77 319.483Z" fill="#DDDDDD"/>
<path d="M1041.94 310.287C1041.94 309.257 1041.11 308.423 1040.08 308.423C1039.05 308.423 1038.22 309.257 1038.22 310.287C1038.22 311.316 1039.05 312.151 1040.08 312.151C1041.11 312.151 1041.94 311.316 1041.94 310.287Z" fill="#DDDDDD"/>
<path d="M1051.14 319.483C1051.14 318.453 1050.31 317.619 1049.28 317.619C1048.25 317.619 1047.41 318.453 1047.41 319.483C1047.41 320.512 1048.25 321.347 1049.28 321.347C1050.31 321.347 1051.14 320.512 1051.14 319.483Z" fill="#DDDDDD"/>
<path d="M1060.31 310.287C1060.31 309.257 1059.48 308.423 1058.45 308.423C1057.42 308.423 1056.58 309.257 1056.58 310.287C1056.58 311.316 1057.42 312.151 1058.45 312.151C1059.48 312.151 1060.31 311.316 1060.31 310.287Z" fill="#DDDDDD"/>
<path d="M1069.51 319.483C1069.51 318.453 1068.67 317.619 1067.64 317.619C1066.61 317.619 1065.78 318.453 1065.78 319.483C1065.78 320.512 1066.61 321.347 1067.64 321.347C1068.67 321.347 1069.51 320.512 1069.51 319.483Z" fill="#DDDDDD"/>
<path d="M1078.7 310.287C1078.7 309.257 1077.87 308.423 1076.84 308.423C1075.81 308.423 1074.98 309.257 1074.98 310.287C1074.98 311.316 1075.81 312.151 1076.84 312.151C1077.87 312.151 1078.7 311.316 1078.7 310.287Z" fill="#DDDDDD"/>
<path d="M1087.88 319.483C1087.88 318.453 1087.04 317.619 1086.01 317.619C1084.98 317.619 1084.15 318.453 1084.15 319.483C1084.15 320.512 1084.98 321.347 1086.01 321.347C1087.04 321.347 1087.88 320.512 1087.88 319.483Z" fill="#DDDDDD"/>
<path d="M1097.07 310.287C1097.07 309.257 1096.24 308.423 1095.21 308.423C1094.18 308.423 1093.34 309.257 1093.34 310.287C1093.34 311.316 1094.18 312.151 1095.21 312.151C1096.24 312.151 1097.07 311.316 1097.07 310.287Z" fill="#DDDDDD"/>
<path d="M1106.24 319.483C1106.24 318.453 1105.41 317.619 1104.38 317.619C1103.35 317.619 1102.51 318.453 1102.51 319.483C1102.51 320.512 1103.35 321.347 1104.38 321.347C1105.41 321.347 1106.24 320.512 1106.24 319.483Z" fill="#DDDDDD"/>
<path d="M1005.21 328.654C1005.21 327.625 1004.38 326.79 1003.35 326.79C1002.32 326.79 1001.48 327.625 1001.48 328.654C1001.48 329.684 1002.32 330.518 1003.35 330.518C1004.38 330.518 1005.21 329.684 1005.21 328.654Z" fill="#DDDDDD"/>
<path d="M1014.38 337.85C1014.38 336.821 1013.55 335.986 1012.52 335.986C1011.49 335.986 1010.65 336.821 1010.65 337.85C1010.65 338.88 1011.49 339.714 1012.52 339.714C1013.55 339.714 1014.38 338.88 1014.38 337.85Z" fill="#DDDDDD"/>
<path d="M1023.58 328.654C1023.58 327.625 1022.74 326.79 1021.71 326.79C1020.68 326.79 1019.85 327.625 1019.85 328.654C1019.85 329.684 1020.68 330.518 1021.71 330.518C1022.74 330.518 1023.58 329.684 1023.58 328.654Z" fill="#DDDDDD"/>
<path d="M1032.77 337.85C1032.77 336.821 1031.94 335.986 1030.91 335.986C1029.88 335.986 1029.05 336.821 1029.05 337.85C1029.05 338.88 1029.88 339.714 1030.91 339.714C1031.94 339.714 1032.77 338.88 1032.77 337.85Z" fill="#DDDDDD"/>
<path d="M1041.94 328.654C1041.94 327.625 1041.11 326.79 1040.08 326.79C1039.05 326.79 1038.22 327.625 1038.22 328.654C1038.22 329.684 1039.05 330.518 1040.08 330.518C1041.11 330.518 1041.94 329.684 1041.94 328.654Z" fill="#DDDDDD"/>
<path d="M1051.14 337.85C1051.14 336.821 1050.31 335.986 1049.28 335.986C1048.25 335.986 1047.41 336.821 1047.41 337.85C1047.41 338.88 1048.25 339.714 1049.28 339.714C1050.31 339.714 1051.14 338.88 1051.14 337.85Z" fill="#DDDDDD"/>
<path d="M1060.31 328.654C1060.31 327.625 1059.48 326.79 1058.45 326.79C1057.42 326.79 1056.58 327.625 1056.58 328.654C1056.58 329.684 1057.42 330.518 1058.45 330.518C1059.48 330.518 1060.31 329.684 1060.31 328.654Z" fill="#DDDDDD"/>
<path d="M1069.51 337.85C1069.51 336.821 1068.67 335.986 1067.64 335.986C1066.61 335.986 1065.78 336.821 1065.78 337.85C1065.78 338.88 1066.61 339.714 1067.64 339.714C1068.67 339.714 1069.51 338.88 1069.51 337.85Z" fill="#DDDDDD"/>
<path d="M1078.7 328.654C1078.7 327.625 1077.87 326.79 1076.84 326.79C1075.81 326.79 1074.98 327.625 1074.98 328.654C1074.98 329.684 1075.81 330.518 1076.84 330.518C1077.87 330.518 1078.7 329.684 1078.7 328.654Z" fill="#DDDDDD"/>
<path d="M1087.88 337.85C1087.88 336.821 1087.04 335.986 1086.01 335.986C1084.98 335.986 1084.15 336.821 1084.15 337.85C1084.15 338.88 1084.98 339.714 1086.01 339.714C1087.04 339.714 1087.88 338.88 1087.88 337.85Z" fill="#DDDDDD"/>
<path d="M1097.07 328.654C1097.07 327.625 1096.24 326.79 1095.21 326.79C1094.18 326.79 1093.34 327.625 1093.34 328.654C1093.34 329.684 1094.18 330.518 1095.21 330.518C1096.24 330.518 1097.07 329.684 1097.07 328.654Z" fill="#DDDDDD"/>
<path d="M1106.24 337.85C1106.24 336.821 1105.41 335.986 1104.38 335.986C1103.35 335.986 1102.51 336.821 1102.51 337.85C1102.51 338.88 1103.35 339.714 1104.38 339.714C1105.41 339.714 1106.24 338.88 1106.24 337.85Z" fill="#DDDDDD"/>
<path d="M1005.21 347.046C1005.21 346.016 1004.38 345.182 1003.35 345.182C1002.32 345.182 1001.48 346.016 1001.48 347.046C1001.48 348.075 1002.32 348.91 1003.35 348.91C1004.38 348.91 1005.21 348.075 1005.21 347.046Z" fill="#DDDDDD"/>
<path d="M1023.58 347.046C1023.58 346.016 1022.74 345.182 1021.71 345.182C1020.68 345.182 1019.85 346.016 1019.85 347.046C1019.85 348.075 1020.68 348.91 1021.71 348.91C1022.74 348.91 1023.58 348.075 1023.58 347.046Z" fill="#DDDDDD"/>
<path d="M1041.94 347.046C1041.94 346.016 1041.11 345.182 1040.08 345.182C1039.05 345.182 1038.22 346.016 1038.22 347.046C1038.22 348.075 1039.05 348.91 1040.08 348.91C1041.11 348.91 1041.94 348.075 1041.94 347.046Z" fill="#DDDDDD"/>
<path d="M1060.31 347.046C1060.31 346.016 1059.48 345.182 1058.45 345.182C1057.42 345.182 1056.58 346.016 1056.58 347.046C1056.58 348.075 1057.42 348.91 1058.45 348.91C1059.48 348.91 1060.31 348.075 1060.31 347.046Z" fill="#DDDDDD"/>
<path d="M1078.7 347.046C1078.7 346.016 1077.87 345.182 1076.84 345.182C1075.81 345.182 1074.98 346.016 1074.98 347.046C1074.98 348.075 1075.81 348.91 1076.84 348.91C1077.87 348.91 1078.7 348.075 1078.7 347.046Z" fill="#DDDDDD"/>
<path d="M1097.07 347.046C1097.07 346.016 1096.24 345.182 1095.21 345.182C1094.18 345.182 1093.34 346.016 1093.34 347.046C1093.34 348.075 1094.18 348.91 1095.21 348.91C1096.24 348.91 1097.07 348.075 1097.07 347.046Z" fill="#DDDDDD"/>
</g>
<path d="M976.035 434L1010.59 374.583L941.499 374.583L976.035 434Z" fill="#EEEEEE"/>
<mask id="mask2_89_344" style="mask-type:luminance" maskUnits="userSpaceOnUse" x="759" y="297" width="77" height="78">
<path d="M759.1 297.643L759.1 374.085L835.541 374.085L835.541 297.643L759.1 297.643Z" fill="white"/>
</mask>
<g mask="url(#mask2_89_344)">
<path d="M751.761 261.558L856.255 366.053L857.437 364.871L752.943 260.376L751.761 261.558Z" fill="#EEEEEE"/>
<path d="M756.811 256.522L861.306 361.017L862.488 359.835L757.993 255.34L756.811 256.522Z" fill="#EEEEEE"/>
<path d="M761.863 251.468L866.358 355.963L867.54 354.781L763.045 250.286L761.863 251.468Z" fill="#EEEEEE"/>
<path d="M766.901 246.401L871.396 350.896L872.578 349.714L768.083 245.219L766.901 246.401Z" fill="#EEEEEE"/>
<path d="M771.971 241.347L876.465 345.842L877.647 344.66L773.153 240.165L771.971 241.347Z" fill="#EEEEEE"/>
<path d="M726.503 286.811L830.998 391.305L832.18 390.123L727.685 285.629L726.503 286.811Z" fill="#EEEEEE"/>
<path d="M731.555 281.775L836.049 386.269L837.231 385.087L732.737 280.592L731.555 281.775Z" fill="#EEEEEE"/>
<path d="M736.606 276.721L841.101 381.215L842.283 380.033L737.788 275.539L736.606 276.721Z" fill="#EEEEEE"/>
<path d="M741.658 271.666L846.153 376.161L847.335 374.979L742.84 270.484L741.658 271.666Z" fill="#EEEEEE"/>
<path d="M746.709 266.612L851.203 371.107L852.385 369.925L747.891 265.43L746.709 266.612Z" fill="#EEEEEE"/>
<path d="M701.23 312.106L805.724 416.601L806.906 415.419L702.412 310.924L701.23 312.106Z" fill="#EEEEEE"/>
<path d="M706.281 307.052L810.775 411.546L811.957 410.364L707.463 305.87L706.281 307.052Z" fill="#EEEEEE"/>
<path d="M711.332 301.998L815.826 406.493L817.008 405.311L712.514 300.816L711.332 301.998Z" fill="#EEEEEE"/>
<path d="M716.37 296.932L820.865 401.426L822.047 400.244L717.552 295.75L716.37 296.932Z" fill="#EEEEEE"/>
<path d="M721.44 291.878L825.934 396.372L827.116 395.19L722.622 290.696L721.44 291.878Z" fill="#EEEEEE"/>
</g>
<mask id="mask3_89_344" style="mask-type:luminance" maskUnits="userSpaceOnUse" x="442" y="375" width="59" height="60">
<path d="M442.665 404.927L442.665 404.941C442.665 420.99 455.675 434 471.724 434L471.738 434C487.787 434 500.798 420.99 500.798 404.941L500.798 404.927C500.798 388.878 487.787 375.868 471.738 375.868L471.724 375.868C455.675 375.868 442.665 388.878 442.665 404.927Z" fill="white"/>
</mask>
<g mask="url(#mask3_89_344)">
<path d="M437.081 348.431L516.547 427.897L517.446 426.999L437.98 347.532L437.081 348.431Z" fill="#DDDDDD"/>
<path d="M440.913 344.578L520.379 424.044L521.278 423.146L441.812 343.679L440.913 344.578Z" fill="#DDDDDD"/>
<path d="M444.768 340.734L524.234 420.201L525.133 419.302L445.667 339.835L444.768 340.734Z" fill="#DDDDDD"/>
<path d="M448.61 336.89L528.077 416.357L528.976 415.458L449.509 335.992L448.61 336.89Z" fill="#DDDDDD"/>
<path d="M452.451 333.06L531.917 412.527L532.816 411.628L453.35 332.161L452.451 333.06Z" fill="#DDDDDD"/>
<path d="M417.865 367.644L497.332 447.111L498.23 446.212L418.764 366.745L417.865 367.644Z" fill="#DDDDDD"/>
<path d="M421.706 363.801L501.172 443.268L502.071 442.369L422.605 362.902L421.706 363.801Z" fill="#DDDDDD"/>
<path d="M425.547 359.957L505.014 439.424L505.913 438.525L426.446 359.058L425.547 359.957Z" fill="#DDDDDD"/>
<path d="M429.399 356.104L508.865 435.571L509.764 434.672L430.298 355.205L429.399 356.104Z" fill="#DDDDDD"/>
<path d="M433.24 352.274L512.707 431.741L513.605 430.842L434.139 351.375L433.24 352.274Z" fill="#DDDDDD"/>
<path d="M398.653 386.858L478.119 466.325L479.018 465.426L399.552 385.959L398.653 386.858Z" fill="#DDDDDD"/>
<path d="M402.485 383.005L481.951 462.472L482.85 461.573L403.384 382.106L402.485 383.005Z" fill="#DDDDDD"/>
<path d="M406.34 379.161L485.806 458.627L486.705 457.729L407.239 378.262L406.34 379.161Z" fill="#DDDDDD"/>
<path d="M410.182 375.318L489.648 454.785L490.547 453.886L411.081 374.419L410.182 375.318Z" fill="#DDDDDD"/>
<path d="M414.023 371.488L493.489 450.955L494.388 450.056L414.922 370.589L414.023 371.488Z" fill="#DDDDDD"/>
</g>
<mask id="mask4_89_344" style="mask-type:luminance" maskUnits="userSpaceOnUse" x="942" y="120" width="59" height="59">
<path d="M942.395 149.36L942.395 149.374C942.395 165.423 955.405 178.433 971.454 178.433L971.468 178.433C987.517 178.433 1000.53 165.423 1000.53 149.374L1000.53 149.36C1000.53 133.311 987.517 120.3 971.468 120.3L971.454 120.3C955.405 120.3 942.395 133.311 942.395 149.36Z" fill="white"/>
</mask>
<g mask="url(#mask4_89_344)">
<path d="M936.81 92.8636L1016.28 172.33L1017.18 171.431L937.709 91.9647L936.81 92.8636Z" fill="#DDDDDD"/>
<path d="M940.642 89.0106L1020.11 168.477L1021.01 167.578L941.541 88.1116L940.642 89.0106Z" fill="#DDDDDD"/>
<path d="M944.497 85.1668L1023.96 164.633L1024.86 163.734L945.396 84.2679L944.497 85.1668Z" fill="#DDDDDD"/>
<path d="M948.34 81.3226L1027.81 160.789L1028.71 159.89L949.239 80.4237L948.34 81.3226Z" fill="#DDDDDD"/>
<path d="M952.18 77.493L1031.65 156.959L1032.55 156.061L953.079 76.5941L952.18 77.493Z" fill="#DDDDDD"/>
<path d="M917.595 112.077L997.061 191.543L997.96 190.645L918.493 111.178L917.595 112.077Z" fill="#DDDDDD"/>
<path d="M921.435 108.234L1000.9 187.7L1001.8 186.801L922.334 107.335L921.435 108.234Z" fill="#DDDDDD"/>
<path d="M925.276 104.39L1004.74 183.856L1005.64 182.958L926.175 103.491L925.276 104.39Z" fill="#DDDDDD"/>
<path d="M929.128 100.536L1008.59 180.003L1009.49 179.104L930.027 99.6375L929.128 100.536Z" fill="#DDDDDD"/>
<path d="M932.97 96.7069L1012.44 176.173L1013.33 175.274L933.868 95.8079L932.97 96.7069Z" fill="#DDDDDD"/>
<path d="M898.382 131.291L977.849 210.757L978.748 209.858L899.281 130.392L898.382 131.291Z" fill="#DDDDDD"/>
<path d="M902.214 127.437L981.681 206.904L982.58 206.005L903.113 126.538L902.214 127.437Z" fill="#DDDDDD"/>
<path d="M906.069 123.594L985.536 203.06L986.435 202.161L906.968 122.695L906.069 123.594Z" fill="#DDDDDD"/>
<path d="M909.911 119.75L989.378 199.217L990.277 198.318L910.81 118.851L909.911 119.75Z" fill="#DDDDDD"/>
<path d="M913.752 115.921L993.219 195.387L994.118 194.488L914.651 115.022L913.752 115.921Z" fill="#DDDDDD"/>
</g>
<mask id="mask5_89_344" style="mask-type:luminance" maskUnits="userSpaceOnUse" x="0" y="150" width="92" height="92">
<path d="M-1.81315e-06 196.386L-1.81228e-06 196.408C-8.11388e-07 221.586 20.4109 241.997 45.589 241.997L45.6106 241.997C70.7887 241.997 91.1996 221.586 91.1996 196.408L91.1996 196.386C91.1996 171.208 70.7887 150.797 45.6106 150.797L45.5889 150.797C20.4109 150.797 -2.81404e-06 171.208 -1.81315e-06 196.386Z" fill="white"/>
</mask>
<g mask="url(#mask5_89_344)">
<path d="M-8.76021 107.755L115.908 232.423L117.318 231.013L-7.34998 106.345L-8.76021 107.755Z" fill="#EEEEEE"/>
<path d="M-2.73365 101.726L121.935 226.394L123.345 224.984L-1.32341 100.316L-2.73365 101.726Z" fill="#EEEEEE"/>
<path d="M3.30004 95.6804L127.968 220.349L129.378 218.938L4.71028 94.2702L3.30004 95.6804Z" fill="#EEEEEE"/>
<path d="M9.32621 89.65L133.995 214.318L135.405 212.908L10.7365 88.2397L9.32621 89.65Z" fill="#EEEEEE"/>
<path d="M15.3526 83.6426L140.021 208.311L141.431 206.901L16.7628 82.2324L15.3526 83.6426Z" fill="#EEEEEE"/>
<path d="M-38.8916 137.882L85.7769 262.55L87.1871 261.14L-37.4813 136.472L-38.8916 137.882Z" fill="#EEEEEE"/>
<path d="M-32.8652 131.853L91.8032 256.521L93.2135 255.111L-31.455 130.443L-32.8652 131.853Z" fill="#EEEEEE"/>
<path d="M-26.8391 125.823L97.8291 250.492L99.2393 249.081L-25.4289 124.413L-26.8391 125.823Z" fill="#EEEEEE"/>
<path d="M-20.8128 119.815L103.855 244.483L105.266 243.073L-19.4025 118.404L-20.8128 119.815Z" fill="#EEEEEE"/>
<path d="M-14.7866 113.785L109.882 238.454L111.292 237.043L-13.3763 112.375L-14.7866 113.785Z" fill="#EEEEEE"/>
<path d="M-69.0466 168.041L55.6216 292.709L57.0318 291.299L-67.6364 166.631L-69.0466 168.041Z" fill="#EEEEEE"/>
<path d="M-63.0205 162.011L61.6479 286.679L63.0582 285.269L-61.6102 160.601L-63.0205 162.011Z" fill="#EEEEEE"/>
<path d="M-56.9871 155.966L67.6812 280.634L69.0914 279.224L-55.5768 154.556L-56.9871 155.966Z" fill="#EEEEEE"/>
<path d="M-50.9607 149.957L73.7075 274.625L75.1178 273.215L-49.5505 148.547L-50.9607 149.957Z" fill="#EEEEEE"/>
<path d="M-44.9334 143.927L79.7349 268.596L81.1451 267.185L-43.5231 142.517L-44.9334 143.927Z" fill="#EEEEEE"/>
</g>
<mask id="mask6_89_344" style="mask-type:luminance" maskUnits="userSpaceOnUse" x="184" y="304" width="92" height="95">
<path d="M184.267 304.344L184.267 398.074L275.466 398.074L275.466 304.344L184.267 304.344Z" fill="white"/>
</mask>
<g mask="url(#mask6_89_344)">
<path d="M197.61 309.546C197.61 308.701 196.925 308.016 196.08 308.016C195.234 308.016 194.549 308.701 194.549 309.546C194.549 310.392 195.234 311.077 196.08 311.077C196.925 311.077 197.61 310.392 197.61 309.546Z" fill="#DDDDDD" fill-opacity="0.8"/>
<path d="M212.688 309.546C212.688 308.701 212.003 308.016 211.158 308.016C210.313 308.016 209.627 308.701 209.627 309.546C209.627 310.392 210.313 311.077 211.158 311.077C212.003 311.077 212.688 310.392 212.688 309.546Z" fill="#DDDDDD" fill-opacity="0.8"/>
<path d="M227.785 309.546C227.785 308.701 227.1 308.016 226.255 308.016C225.41 308.016 224.725 308.701 224.725 309.546C224.725 310.392 225.41 311.077 226.255 311.077C227.1 311.077 227.785 310.392 227.785 309.546Z" fill="#DDDDDD" fill-opacity="0.8"/>
<path d="M242.864 309.546C242.864 308.701 242.179 308.016 241.333 308.016C240.488 308.016 239.803 308.701 239.803 309.546C239.803 310.392 240.488 311.077 241.333 311.077C242.179 311.077 242.864 310.392 242.864 309.546Z" fill="#DDDDDD" fill-opacity="0.8"/>
<path d="M257.94 309.546C257.94 308.701 257.255 308.016 256.41 308.016C255.565 308.016 254.88 308.701 254.88 309.546C254.88 310.392 255.565 311.077 256.41 311.077C257.255 311.077 257.94 310.392 257.94 309.546Z" fill="#DDDDDD" fill-opacity="0.8"/>
<path d="M273.018 309.546C273.018 308.701 272.333 308.016 271.488 308.016C270.643 308.016 269.958 308.701 269.958 309.546C269.958 310.392 270.643 311.077 271.488 311.077C272.333 311.077 273.018 310.392 273.018 309.546Z" fill="#DDDDDD" fill-opacity="0.8"/>
<path d="M190.081 317.075C190.081 316.23 189.396 315.545 188.551 315.545C187.706 315.545 187.021 316.23 187.021 317.075C187.021 317.92 187.706 318.605 188.551 318.605C189.396 318.605 190.081 317.92 190.081 317.075Z" fill="#DDDDDD" fill-opacity="0.8"/>
<path d="M197.61 324.624C197.61 323.779 196.925 323.093 196.08 323.093C195.234 323.093 194.549 323.779 194.549 324.624C194.549 325.469 195.234 326.154 196.08 326.154C196.925 326.154 197.61 325.469 197.61 324.624Z" fill="#DDDDDD" fill-opacity="0.8"/>
<path d="M205.159 317.075C205.159 316.23 204.473 315.545 203.628 315.545C202.783 315.545 202.098 316.23 202.098 317.075C202.098 317.92 202.783 318.605 203.628 318.605C204.473 318.605 205.159 317.92 205.159 317.075Z" fill="#DDDDDD" fill-opacity="0.8"/>
<path d="M212.688 324.624C212.688 323.779 212.003 323.093 211.158 323.093C210.313 323.093 209.627 323.779 209.627 324.624C209.627 325.469 210.313 326.154 211.158 326.154C212.003 326.154 212.688 325.469 212.688 324.624Z" fill="#DDDDDD" fill-opacity="0.8"/>
<path d="M220.237 317.075C220.237 316.23 219.552 315.545 218.706 315.545C217.861 315.545 217.176 316.23 217.176 317.075C217.176 317.92 217.861 318.605 218.706 318.605C219.552 318.605 220.237 317.92 220.237 317.075Z" fill="#DDDDDD" fill-opacity="0.8"/>
<path d="M227.785 324.624C227.785 323.779 227.1 323.093 226.255 323.093C225.41 323.093 224.725 323.779 224.725 324.624C224.725 325.469 225.41 326.154 226.255 326.154C227.1 326.154 227.785 325.469 227.785 324.624Z" fill="#DDDDDD" fill-opacity="0.8"/>
<path d="M235.314 317.075C235.314 316.23 234.629 315.545 233.784 315.545C232.939 315.545 232.253 316.23 232.253 317.075C232.253 317.92 232.939 318.605 233.784 318.605C234.629 318.605 235.314 317.92 235.314 317.075Z" fill="#DDDDDD" fill-opacity="0.8"/>
<path d="M242.864 324.624C242.864 323.779 242.179 323.093 241.333 323.093C240.488 323.093 239.803 323.779 239.803 324.624C239.803 325.469 240.488 326.154 241.333 326.154C242.179 326.154 242.864 325.469 242.864 324.624Z" fill="#DDDDDD" fill-opacity="0.8"/>
<path d="M250.392 317.075C250.392 316.23 249.707 315.545 248.862 315.545C248.017 315.545 247.332 316.23 247.332 317.075C247.332 317.92 248.017 318.605 248.862 318.605C249.707 318.605 250.392 317.92 250.392 317.075Z" fill="#DDDDDD" fill-opacity="0.8"/>
<path d="M257.94 324.624C257.94 323.779 257.255 323.093 256.41 323.093C255.565 323.093 254.88 323.779 254.88 324.624C254.88 325.469 255.565 326.154 256.41 326.154C257.255 326.154 257.94 325.469 257.94 324.624Z" fill="#DDDDDD" fill-opacity="0.8"/>
<path d="M265.49 317.075C265.49 316.23 264.804 315.545 263.959 315.545C263.114 315.545 262.429 316.23 262.429 317.075C262.429 317.92 263.114 318.605 263.959 318.605C264.804 318.605 265.49 317.92 265.49 317.075Z" fill="#DDDDDD" fill-opacity="0.8"/>
<path d="M273.018 324.624C273.018 323.779 272.333 323.093 271.488 323.093C270.643 323.093 269.958 323.779 269.958 324.624C269.958 325.469 270.643 326.154 271.488 326.154C272.333 326.154 273.018 325.469 273.018 324.624Z" fill="#DDDDDD" fill-opacity="0.8"/>
<path d="M190.081 332.173C190.081 331.328 189.396 330.643 188.551 330.643C187.706 330.643 187.021 331.328 187.021 332.173C187.021 333.018 187.706 333.703 188.551 333.703C189.396 333.703 190.081 333.018 190.081 332.173Z" fill="#DDDDDD" fill-opacity="0.8"/>
<path d="M197.61 339.702C197.61 338.857 196.925 338.172 196.08 338.172C195.234 338.172 194.549 338.857 194.549 339.702C194.549 340.547 195.234 341.232 196.08 341.232C196.925 341.232 197.61 340.547 197.61 339.702Z" fill="#DDDDDD" fill-opacity="0.8"/>
<path d="M205.159 332.173C205.159 331.328 204.473 330.643 203.628 330.643C202.783 330.643 202.098 331.328 202.098 332.173C202.098 333.018 202.783 333.703 203.628 333.703C204.473 333.703 205.159 333.018 205.159 332.173Z" fill="#DDDDDD" fill-opacity="0.8"/>
<path d="M212.688 339.702C212.688 338.857 212.003 338.172 211.158 338.172C210.313 338.172 209.627 338.857 209.627 339.702C209.627 340.547 210.313 341.232 211.158 341.232C212.003 341.232 212.688 340.547 212.688 339.702Z" fill="#DDDDDD" fill-opacity="0.8"/>
<path d="M220.237 332.173C220.237 331.328 219.552 330.643 218.706 330.643C217.861 330.643 217.176 331.328 217.176 332.173C217.176 333.018 217.861 333.703 218.706 333.703C219.552 333.703 220.237 333.018 220.237 332.173Z" fill="#DDDDDD" fill-opacity="0.8"/>
<path d="M227.785 339.702C227.785 338.857 227.1 338.172 226.255 338.172C225.41 338.172 224.725 338.857 224.725 339.702C224.725 340.547 225.41 341.232 226.255 341.232C227.1 341.232 227.785 340.547 227.785 339.702Z" fill="#DDDDDD" fill-opacity="0.8"/>
<path d="M235.314 332.173C235.314 331.328 234.629 330.643 233.784 330.643C232.939 330.643 232.253 331.328 232.253 332.173C232.253 333.018 232.939 333.703 233.784 333.703C234.629 333.703 235.314 333.018 235.314 332.173Z" fill="#DDDDDD" fill-opacity="0.8"/>
<path d="M242.864 339.702C242.864 338.857 242.179 338.172 241.333 338.172C240.488 338.172 239.803 338.857 239.803 339.702C239.803 340.547 240.488 341.232 241.333 341.232C242.179 341.232 242.864 340.547 242.864 339.702Z" fill="#DDDDDD" fill-opacity="0.8"/>
<path d="M250.392 332.173C250.392 331.328 249.707 330.643 248.862 330.643C248.017 330.643 247.332 331.328 247.332 332.173C247.332 333.018 248.017 333.703 248.862 333.703C249.707 333.703 250.392 333.018 250.392 332.173Z" fill="#DDDDDD" fill-opacity="0.8"/>
<path d="M257.94 339.702C257.94 338.857 257.255 338.172 256.41 338.172C255.565 338.172 254.88 338.857 254.88 339.702C254.88 340.547 255.565 341.232 256.41 341.232C257.255 341.232 257.94 340.547 257.94 339.702Z" fill="#DDDDDD" fill-opacity="0.8"/>
<path d="M265.49 332.173C265.49 331.328 264.804 330.643 263.959 330.643C263.114 330.643 262.429 331.328 262.429 332.173C262.429 333.018 263.114 333.703 263.959 333.703C264.804 333.703 265.49 333.018 265.49 332.173Z" fill="#DDDDDD" fill-opacity="0.8"/>
<path d="M273.018 339.702C273.018 338.857 272.333 338.172 271.488 338.172C270.643 338.172 269.958 338.857 269.958 339.702C269.958 340.547 270.643 341.232 271.488 341.232C272.333 341.232 273.018 340.547 273.018 339.702Z" fill="#DDDDDD" fill-opacity="0.8"/>
<path d="M190.081 347.251C190.081 346.405 189.396 345.72 188.551 345.72C187.706 345.72 187.021 346.405 187.021 347.251C187.021 348.096 187.706 348.781 188.551 348.781C189.396 348.781 190.081 348.096 190.081 347.251Z" fill="#DDDDDD" fill-opacity="0.8"/>
<path d="M197.61 354.779C197.61 353.934 196.925 353.249 196.08 353.249C195.234 353.249 194.549 353.934 194.549 354.779C194.549 355.624 195.234 356.309 196.08 356.309C196.925 356.309 197.61 355.624 197.61 354.779Z" fill="#DDDDDD" fill-opacity="0.8"/>
<path d="M205.159 347.251C205.159 346.405 204.473 345.72 203.628 345.72C202.783 345.72 202.098 346.405 202.098 347.251C202.098 348.096 202.783 348.781 203.628 348.781C204.473 348.781 205.159 348.096 205.159 347.251Z" fill="#DDDDDD" fill-opacity="0.8"/>
<path d="M212.688 354.779C212.688 353.934 212.003 353.249 211.158 353.249C210.313 353.249 209.627 353.934 209.627 354.779C209.627 355.624 210.313 356.309 211.158 356.309C212.003 356.309 212.688 355.624 212.688 354.779Z" fill="#DDDDDD" fill-opacity="0.8"/>
<path d="M220.237 347.251C220.237 346.405 219.552 345.72 218.706 345.72C217.861 345.72 217.176 346.405 217.176 347.251C217.176 348.096 217.861 348.781 218.706 348.781C219.552 348.781 220.237 348.096 220.237 347.251Z" fill="#DDDDDD" fill-opacity="0.8"/>
<path d="M227.785 354.779C227.785 353.934 227.1 353.249 226.255 353.249C225.41 353.249 224.725 353.934 224.725 354.779C224.725 355.624 225.41 356.309 226.255 356.309C227.1 356.309 227.785 355.624 227.785 354.779Z" fill="#DDDDDD" fill-opacity="0.8"/>
<path d="M235.314 347.251C235.314 346.405 234.629 345.72 233.784 345.72C232.939 345.72 232.253 346.405 232.253 347.251C232.253 348.096 232.939 348.781 233.784 348.781C234.629 348.781 235.314 348.096 235.314 347.251Z" fill="#DDDDDD" fill-opacity="0.8"/>
<path d="M242.864 354.779C242.864 353.934 242.179 353.249 241.333 353.249C240.488 353.249 239.803 353.934 239.803 354.779C239.803 355.624 240.488 356.309 241.333 356.309C242.179 356.309 242.864 355.624 242.864 354.779Z" fill="#DDDDDD" fill-opacity="0.8"/>
<path d="M250.392 347.251C250.392 346.405 249.707 345.72 248.862 345.72C248.017 345.72 247.332 346.405 247.332 347.251C247.332 348.096 248.017 348.781 248.862 348.781C249.707 348.781 250.392 348.096 250.392 347.251Z" fill="#DDDDDD" fill-opacity="0.8"/>
<path d="M257.94 354.779C257.94 353.934 257.255 353.249 256.41 353.249C255.565 353.249 254.88 353.934 254.88 354.779C254.88 355.624 255.565 356.309 256.41 356.309C257.255 356.309 257.94 355.624 257.94 354.779Z" fill="#DDDDDD" fill-opacity="0.8"/>
<path d="M265.49 347.251C265.49 346.405 264.804 345.72 263.959 345.72C263.114 345.72 262.429 346.405 262.429 347.251C262.429 348.096 263.114 348.781 263.959 348.781C264.804 348.781 265.49 348.096 265.49 347.251Z" fill="#DDDDDD" fill-opacity="0.8"/>
<path d="M273.018 354.779C273.018 353.934 272.333 353.249 271.488 353.249C270.643 353.249 269.958 353.934 269.958 354.779C269.958 355.624 270.643 356.309 271.488 356.309C272.333 356.309 273.018 355.624 273.018 354.779Z" fill="#DDDDDD" fill-opacity="0.8"/>
<path d="M190.081 362.328C190.081 361.483 189.396 360.798 188.551 360.798C187.706 360.798 187.021 361.483 187.021 362.328C187.021 363.173 187.706 363.858 188.551 363.858C189.396 363.858 190.081 363.173 190.081 362.328Z" fill="#DDDDDD" fill-opacity="0.8"/>
<path d="M197.61 369.877C197.61 369.031 196.925 368.346 196.08 368.346C195.234 368.346 194.549 369.031 194.549 369.877C194.549 370.722 195.234 371.407 196.08 371.407C196.925 371.407 197.61 370.722 197.61 369.877Z" fill="#DDDDDD" fill-opacity="0.8"/>
<path d="M205.159 362.328C205.159 361.483 204.473 360.798 203.628 360.798C202.783 360.798 202.098 361.483 202.098 362.328C202.098 363.173 202.783 363.858 203.628 363.858C204.473 363.858 205.159 363.173 205.159 362.328Z" fill="#DDDDDD" fill-opacity="0.8"/>
<path d="M212.688 369.877C212.688 369.031 212.003 368.346 211.158 368.346C210.313 368.346 209.627 369.031 209.627 369.877C209.627 370.722 210.313 371.407 211.158 371.407C212.003 371.407 212.688 370.722 212.688 369.877Z" fill="#DDDDDD" fill-opacity="0.8"/>
<path d="M220.237 362.328C220.237 361.483 219.552 360.798 218.706 360.798C217.861 360.798 217.176 361.483 217.176 362.328C217.176 363.173 217.861 363.858 218.706 363.858C219.552 363.858 220.237 363.173 220.237 362.328Z" fill="#DDDDDD" fill-opacity="0.8"/>
<path d="M227.785 369.877C227.785 369.031 227.1 368.346 226.255 368.346C225.41 368.346 224.725 369.031 224.725 369.877C224.725 370.722 225.41 371.407 226.255 371.407C227.1 371.407 227.785 370.722 227.785 369.877Z" fill="#DDDDDD" fill-opacity="0.8"/>
<path d="M235.314 362.328C235.314 361.483 234.629 360.798 233.784 360.798C232.939 360.798 232.253 361.483 232.253 362.328C232.253 363.173 232.939 363.858 233.784 363.858C234.629 363.858 235.314 363.173 235.314 362.328Z" fill="#DDDDDD" fill-opacity="0.8"/>
<path d="M242.864 369.877C242.864 369.031 242.179 368.346 241.333 368.346C240.488 368.346 239.803 369.031 239.803 369.877C239.803 370.722 240.488 371.407 241.333 371.407C242.179 371.407 242.864 370.722 242.864 369.877Z" fill="#DDDDDD" fill-opacity="0.8"/>
<path d="M250.392 362.328C250.392 361.483 249.707 360.798 248.862 360.798C248.017 360.798 247.332 361.483 247.332 362.328C247.332 363.173 248.017 363.858 248.862 363.858C249.707 363.858 250.392 363.173 250.392 362.328Z" fill="#DDDDDD" fill-opacity="0.8"/>
<path d="M257.94 369.877C257.94 369.031 257.255 368.346 256.41 368.346C255.565 368.346 254.88 369.031 254.88 369.877C254.88 370.722 255.565 371.407 256.41 371.407C257.255 371.407 257.94 370.722 257.94 369.877Z" fill="#DDDDDD" fill-opacity="0.8"/>
<path d="M265.49 362.328C265.49 361.483 264.804 360.798 263.959 360.798C263.114 360.798 262.429 361.483 262.429 362.328C262.429 363.173 263.114 363.858 263.959 363.858C264.804 363.858 265.49 363.173 265.49 362.328Z" fill="#DDDDDD" fill-opacity="0.8"/>
<path d="M273.018 369.877C273.018 369.031 272.333 368.346 271.488 368.346C270.643 368.346 269.958 369.031 269.958 369.877C269.958 370.722 270.643 371.407 271.488 371.407C272.333 371.407 273.018 370.722 273.018 369.877Z" fill="#DDDDDD" fill-opacity="0.8"/>
<path d="M190.081 377.406C190.081 376.561 189.396 375.876 188.551 375.876C187.706 375.876 187.021 376.561 187.021 377.406C187.021 378.251 187.706 378.936 188.551 378.936C189.396 378.936 190.081 378.251 190.081 377.406Z" fill="#DDDDDD" fill-opacity="0.8"/>
<path d="M197.61 384.955C197.61 384.11 196.925 383.424 196.08 383.424C195.234 383.424 194.549 384.11 194.549 384.955C194.549 385.8 195.234 386.485 196.08 386.485C196.925 386.485 197.61 385.8 197.61 384.955Z" fill="#DDDDDD" fill-opacity="0.8"/>
<path d="M205.159 377.406C205.159 376.561 204.473 375.876 203.628 375.876C202.783 375.876 202.098 376.561 202.098 377.406C202.098 378.251 202.783 378.936 203.628 378.936C204.473 378.936 205.159 378.251 205.159 377.406Z" fill="#DDDDDD" fill-opacity="0.8"/>
<path d="M212.688 384.955C212.688 384.11 212.003 383.424 211.158 383.424C210.313 383.424 209.627 384.11 209.627 384.955C209.627 385.8 210.313 386.485 211.158 386.485C212.003 386.485 212.688 385.8 212.688 384.955Z" fill="#DDDDDD" fill-opacity="0.8"/>
<path d="M220.237 377.406C220.237 376.561 219.552 375.876 218.706 375.876C217.861 375.876 217.176 376.561 217.176 377.406C217.176 378.251 217.861 378.936 218.706 378.936C219.552 378.936 220.237 378.251 220.237 377.406Z" fill="#DDDDDD" fill-opacity="0.8"/>
<path d="M227.785 384.955C227.785 384.11 227.1 383.424 226.255 383.424C225.41 383.424 224.725 384.11 224.725 384.955C224.725 385.8 225.41 386.485 226.255 386.485C227.1 386.485 227.785 385.8 227.785 384.955Z" fill="#DDDDDD" fill-opacity="0.8"/>
<path d="M235.314 377.406C235.314 376.561 234.629 375.876 233.784 375.876C232.939 375.876 232.253 376.561 232.253 377.406C232.253 378.251 232.939 378.936 233.784 378.936C234.629 378.936 235.314 378.251 235.314 377.406Z" fill="#DDDDDD" fill-opacity="0.8"/>
<path d="M242.864 384.955C242.864 384.11 242.179 383.424 241.333 383.424C240.488 383.424 239.803 384.11 239.803 384.955C239.803 385.8 240.488 386.485 241.333 386.485C242.179 386.485 242.864 385.8 242.864 384.955Z" fill="#DDDDDD" fill-opacity="0.8"/>
<path d="M250.392 377.406C250.392 376.561 249.707 375.876 248.862 375.876C248.017 375.876 247.332 376.561 247.332 377.406C247.332 378.251 248.017 378.936 248.862 378.936C249.707 378.936 250.392 378.251 250.392 377.406Z" fill="#DDDDDD" fill-opacity="0.8"/>
<path d="M257.94 384.955C257.94 384.11 257.255 383.424 256.41 383.424C255.565 383.424 254.88 384.11 254.88 384.955C254.88 385.8 255.565 386.485 256.41 386.485C257.255 386.485 257.94 385.8 257.94 384.955Z" fill="#DDDDDD" fill-opacity="0.8"/>
<path d="M265.49 377.406C265.49 376.561 264.804 375.876 263.959 375.876C263.114 375.876 262.429 376.561 262.429 377.406C262.429 378.251 263.114 378.936 263.959 378.936C264.804 378.936 265.49 378.251 265.49 377.406Z" fill="#DDDDDD" fill-opacity="0.8"/>
<path d="M273.018 384.955C273.018 384.11 272.333 383.424 271.488 383.424C270.643 383.424 269.958 384.11 269.958 384.955C269.958 385.8 270.643 386.485 271.488 386.485C272.333 386.485 273.018 385.8 273.018 384.955Z" fill="#DDDDDD" fill-opacity="0.8"/>
<path d="M190.081 392.483C190.081 391.638 189.396 390.953 188.551 390.953C187.706 390.953 187.021 391.638 187.021 392.483C187.021 393.328 187.706 394.013 188.551 394.013C189.396 394.013 190.081 393.328 190.081 392.483Z" fill="#DDDDDD" fill-opacity="0.8"/>
<path d="M205.159 392.483C205.159 391.638 204.473 390.953 203.628 390.953C202.783 390.953 202.098 391.638 202.098 392.483C202.098 393.328 202.783 394.013 203.628 394.013C204.473 394.013 205.159 393.328 205.159 392.483Z" fill="#DDDDDD" fill-opacity="0.8"/>
<path d="M220.237 392.483C220.237 391.638 219.552 390.953 218.706 390.953C217.861 390.953 217.176 391.638 217.176 392.483C217.176 393.328 217.861 394.013 218.706 394.013C219.552 394.013 220.237 393.328 220.237 392.483Z" fill="#DDDDDD" fill-opacity="0.8"/>
<path d="M235.314 392.483C235.314 391.638 234.629 390.953 233.784 390.953C232.939 390.953 232.253 391.638 232.253 392.483C232.253 393.328 232.939 394.013 233.784 394.013C234.629 394.013 235.314 393.328 235.314 392.483Z" fill="#DDDDDD" fill-opacity="0.8"/>
<path d="M250.392 392.483C250.392 391.638 249.707 390.953 248.862 390.953C248.017 390.953 247.332 391.638 247.332 392.483C247.332 393.328 248.017 394.013 248.862 394.013C249.707 394.013 250.392 393.328 250.392 392.483Z" fill="#DDDDDD" fill-opacity="0.8"/>
<path d="M265.49 392.483C265.49 391.638 264.804 390.953 263.959 390.953C263.114 390.953 262.429 391.638 262.429 392.483C262.429 393.328 263.114 394.013 263.959 394.013C264.804 394.013 265.49 393.328 265.49 392.483Z" fill="#DDDDDD" fill-opacity="0.8"/>
</g>
<mask id="mask7_89_344" style="mask-type:luminance" maskUnits="userSpaceOnUse" x="192" y="73" width="62" height="64">
<path d="M192.071 73.4986L192.071 136.979L253.838 136.979L253.838 73.4986L192.071 73.4986Z" fill="white"/>
</mask>
<g mask="url(#mask7_89_344)">
<path d="M201.108 77.0222C201.108 76.4499 200.644 75.9859 200.072 75.9859C199.5 75.9859 199.036 76.4499 199.036 77.0222C199.036 77.5946 199.5 78.0586 200.072 78.0586C200.644 78.0586 201.108 77.5946 201.108 77.0222Z" fill="#DDDDDD"/>
<path d="M211.32 77.0222C211.32 76.4499 210.856 75.9859 210.283 75.9859C209.711 75.9859 209.247 76.4499 209.247 77.0222C209.247 77.5946 209.711 78.0586 210.283 78.0586C210.856 78.0586 211.32 77.5946 211.32 77.0222Z" fill="#DDDDDD"/>
<path d="M221.531 77.0222C221.531 76.4499 221.067 75.9859 220.495 75.9859C219.922 75.9859 219.458 76.4499 219.458 77.0222C219.458 77.5946 219.922 78.0586 220.495 78.0586C221.067 78.0586 221.531 77.5946 221.531 77.0222Z" fill="#DDDDDD"/>
<path d="M231.743 77.0222C231.743 76.4499 231.279 75.9859 230.707 75.9859C230.134 75.9859 229.67 76.4499 229.67 77.0222C229.67 77.5946 230.134 78.0586 230.707 78.0586C231.279 78.0586 231.743 77.5946 231.743 77.0222Z" fill="#DDDDDD"/>
<path d="M241.968 77.0222C241.968 76.4499 241.504 75.9859 240.932 75.9859C240.36 75.9859 239.896 76.4499 239.896 77.0222C239.896 77.5946 240.36 78.0586 240.932 78.0586C241.504 78.0586 241.968 77.5946 241.968 77.0222Z" fill="#DDDDDD"/>
<path d="M252.18 77.0222C252.18 76.4499 251.716 75.9859 251.144 75.9859C250.571 75.9859 250.107 76.4499 250.107 77.0222C250.107 77.5946 250.571 78.0586 251.144 78.0586C251.716 78.0586 252.18 77.5946 252.18 77.0222Z" fill="#DDDDDD"/>
<path d="M195.996 82.1209C195.996 81.5485 195.532 81.0845 194.959 81.0845C194.387 81.0845 193.923 81.5485 193.923 82.1209C193.923 82.6932 194.387 83.1572 194.959 83.1572C195.532 83.1572 195.996 82.6932 195.996 82.1209Z" fill="#DDDDDD"/>
<path d="M201.108 87.2337C201.108 86.6613 200.644 86.1973 200.072 86.1973C199.5 86.1973 199.036 86.6613 199.036 87.2337C199.036 87.806 199.5 88.27 200.072 88.27C200.644 88.27 201.108 87.806 201.108 87.2337Z" fill="#DDDDDD"/>
<path d="M206.207 82.1209C206.207 81.5485 205.743 81.0845 205.171 81.0845C204.599 81.0845 204.135 81.5485 204.135 82.1209C204.135 82.6932 204.599 83.1572 205.171 83.1572C205.743 83.1572 206.207 82.6932 206.207 82.1209Z" fill="#DDDDDD"/>
<path d="M211.32 87.2337C211.32 86.6613 210.856 86.1973 210.283 86.1973C209.711 86.1973 209.247 86.6613 209.247 87.2337C209.247 87.806 209.711 88.27 210.283 88.27C210.856 88.27 211.32 87.806 211.32 87.2337Z" fill="#DDDDDD"/>
<path d="M216.433 82.1209C216.433 81.5485 215.969 81.0845 215.396 81.0845C214.824 81.0845 214.36 81.5485 214.36 82.1209C214.36 82.6932 214.824 83.1572 215.396 83.1572C215.969 83.1572 216.433 82.6932 216.433 82.1209Z" fill="#DDDDDD"/>
<path d="M221.531 87.2337C221.531 86.6613 221.067 86.1973 220.495 86.1973C219.922 86.1973 219.458 86.6613 219.458 87.2337C219.458 87.806 219.922 88.27 220.495 88.27C221.067 88.27 221.531 87.806 221.531 87.2337Z" fill="#DDDDDD"/>
<path d="M226.644 82.1209C226.644 81.5485 226.18 81.0845 225.608 81.0845C225.035 81.0845 224.571 81.5485 224.571 82.1209C224.571 82.6932 225.035 83.1572 225.608 83.1572C226.18 83.1572 226.644 82.6932 226.644 82.1209Z" fill="#DDDDDD"/>
<path d="M231.743 87.2337C231.743 86.6613 231.279 86.1973 230.707 86.1973C230.134 86.1973 229.67 86.6613 229.67 87.2337C229.67 87.806 230.134 88.27 230.707 88.27C231.279 88.27 231.743 87.806 231.743 87.2337Z" fill="#DDDDDD"/>
<path d="M236.855 82.1209C236.855 81.5485 236.391 81.0845 235.819 81.0845C235.247 81.0845 234.783 81.5485 234.783 82.1209C234.783 82.6932 235.247 83.1572 235.819 83.1572C236.391 83.1572 236.855 82.6932 236.855 82.1209Z" fill="#DDDDDD"/>
<path d="M241.968 87.2337C241.968 86.6613 241.504 86.1973 240.932 86.1973C240.36 86.1973 239.896 86.6613 239.896 87.2337C239.896 87.806 240.36 88.27 240.932 88.27C241.504 88.27 241.968 87.806 241.968 87.2337Z" fill="#DDDDDD"/>
<path d="M247.067 82.1209C247.067 81.5485 246.603 81.0845 246.031 81.0845C245.459 81.0845 244.995 81.5485 244.995 82.1209C244.995 82.6932 245.459 83.1572 246.031 83.1572C246.603 83.1572 247.067 82.6932 247.067 82.1209Z" fill="#DDDDDD"/>
<path d="M252.18 87.2337C252.18 86.6613 251.716 86.1973 251.144 86.1973C250.571 86.1973 250.107 86.6613 250.107 87.2337C250.107 87.806 250.571 88.27 251.144 88.27C251.716 88.27 252.18 87.806 252.18 87.2337Z" fill="#DDDDDD"/>
<path d="M195.996 92.3328C195.996 91.7604 195.532 91.2964 194.959 91.2964C194.387 91.2964 193.923 91.7604 193.923 92.3328C193.923 92.9051 194.387 93.3691 194.959 93.3691C195.532 93.3691 195.996 92.9051 195.996 92.3328Z" fill="#DDDDDD"/>
<path d="M201.108 97.4451C201.108 96.8727 200.644 96.4087 200.072 96.4087C199.5 96.4087 199.036 96.8727 199.036 97.4451C199.036 98.0175 199.5 98.4814 200.072 98.4814C200.644 98.4814 201.108 98.0175 201.108 97.4451Z" fill="#DDDDDD"/>
<path d="M206.207 92.3328C206.207 91.7604 205.743 91.2964 205.171 91.2964C204.599 91.2964 204.135 91.7604 204.135 92.3328C204.135 92.9051 204.599 93.3691 205.171 93.3691C205.743 93.3691 206.207 92.9051 206.207 92.3328Z" fill="#DDDDDD"/>
<path d="M211.32 97.4451C211.32 96.8727 210.856 96.4087 210.283 96.4087C209.711 96.4087 209.247 96.8727 209.247 97.4451C209.247 98.0175 209.711 98.4814 210.283 98.4814C210.856 98.4814 211.32 98.0175 211.32 97.4451Z" fill="#DDDDDD"/>
<path d="M216.433 92.3328C216.433 91.7604 215.969 91.2964 215.396 91.2964C214.824 91.2964 214.36 91.7604 214.36 92.3328C214.36 92.9051 214.824 93.3691 215.396 93.3691C215.969 93.3691 216.433 92.9051 216.433 92.3328Z" fill="#DDDDDD"/>
<path d="M221.531 97.4451C221.531 96.8727 221.067 96.4087 220.495 96.4087C219.922 96.4087 219.458 96.8727 219.458 97.4451C219.458 98.0175 219.922 98.4814 220.495 98.4814C221.067 98.4814 221.531 98.0175 221.531 97.4451Z" fill="#DDDDDD"/>
<path d="M226.644 92.3328C226.644 91.7604 226.18 91.2964 225.608 91.2964C225.035 91.2964 224.571 91.7604 224.571 92.3328C224.571 92.9051 225.035 93.3691 225.608 93.3691C226.18 93.3691 226.644 92.9051 226.644 92.3328Z" fill="#DDDDDD"/>
<path d="M231.743 97.4451C231.743 96.8727 231.279 96.4087 230.707 96.4087C230.134 96.4087 229.67 96.8727 229.67 97.4451C229.67 98.0175 230.134 98.4814 230.707 98.4814C231.279 98.4814 231.743 98.0175 231.743 97.4451Z" fill="#DDDDDD"/>
<path d="M236.855 92.3328C236.855 91.7604 236.391 91.2964 235.819 91.2964C235.247 91.2964 234.783 91.7604 234.783 92.3328C234.783 92.9051 235.247 93.3691 235.819 93.3691C236.391 93.3691 236.855 92.9051 236.855 92.3328Z" fill="#DDDDDD"/>
<path d="M241.968 97.4451C241.968 96.8727 241.504 96.4087 240.932 96.4087C240.36 96.4087 239.896 96.8727 239.896 97.4451C239.896 98.0175 240.36 98.4814 240.932 98.4814C241.504 98.4814 241.968 98.0175 241.968 97.4451Z" fill="#DDDDDD"/>
<path d="M247.067 92.3328C247.067 91.7604 246.603 91.2964 246.031 91.2964C245.459 91.2964 244.995 91.7604 244.995 92.3328C244.995 92.9051 245.459 93.3691 246.031 93.3691C246.603 93.3691 247.067 92.9051 247.067 92.3328Z" fill="#DDDDDD"/>
<path d="M252.18 97.4451C252.18 96.8727 251.716 96.4087 251.144 96.4087C250.571 96.4087 250.107 96.8727 250.107 97.4451C250.107 98.0175 250.571 98.4814 251.144 98.4814C251.716 98.4814 252.18 98.0175 252.18 97.4451Z" fill="#DDDDDD"/>
<path d="M195.996 102.558C195.996 101.986 195.532 101.522 194.959 101.522C194.387 101.522 193.923 101.986 193.923 102.558C193.923 103.13 194.387 103.594 194.959 103.594C195.532 103.594 195.996 103.13 195.996 102.558Z" fill="#DDDDDD"/>
<path d="M201.108 107.657C201.108 107.085 200.644 106.621 200.072 106.621C199.5 106.621 199.036 107.085 199.036 107.657C199.036 108.229 199.5 108.693 200.072 108.693C200.644 108.693 201.108 108.229 201.108 107.657Z" fill="#DDDDDD"/>
<path d="M206.207 102.558C206.207 101.986 205.743 101.522 205.171 101.522C204.599 101.522 204.135 101.986 204.135 102.558C204.135 103.13 204.599 103.594 205.171 103.594C205.743 103.594 206.207 103.13 206.207 102.558Z" fill="#DDDDDD"/>
<path d="M211.32 107.657C211.32 107.085 210.856 106.621 210.283 106.621C209.711 106.621 209.247 107.085 209.247 107.657C209.247 108.229 209.711 108.693 210.283 108.693C210.856 108.693 211.32 108.229 211.32 107.657Z" fill="#DDDDDD"/>
<path d="M216.433 102.558C216.433 101.986 215.969 101.522 215.396 101.522C214.824 101.522 214.36 101.986 214.36 102.558C214.36 103.13 214.824 103.594 215.396 103.594C215.969 103.594 216.433 103.13 216.433 102.558Z" fill="#DDDDDD"/>
<path d="M221.531 107.657C221.531 107.085 221.067 106.621 220.495 106.621C219.922 106.621 219.458 107.085 219.458 107.657C219.458 108.229 219.922 108.693 220.495 108.693C221.067 108.693 221.531 108.229 221.531 107.657Z" fill="#DDDDDD"/>
<path d="M226.644 102.558C226.644 101.986 226.18 101.522 225.608 101.522C225.035 101.522 224.571 101.986 224.571 102.558C224.571 103.13 225.035 103.594 225.608 103.594C226.18 103.594 226.644 103.13 226.644 102.558Z" fill="#DDDDDD"/>
<path d="M231.743 107.657C231.743 107.085 231.279 106.621 230.707 106.621C230.134 106.621 229.67 107.085 229.67 107.657C229.67 108.229 230.134 108.693 230.707 108.693C231.279 108.693 231.743 108.229 231.743 107.657Z" fill="#DDDDDD"/>
<path d="M236.855 102.558C236.855 101.986 236.391 101.522 235.819 101.522C235.247 101.522 234.783 101.986 234.783 102.558C234.783 103.13 235.247 103.594 235.819 103.594C236.391 103.594 236.855 103.13 236.855 102.558Z" fill="#DDDDDD"/>
<path d="M241.968 107.657C241.968 107.085 241.504 106.621 240.932 106.621C240.36 106.621 239.896 107.085 239.896 107.657C239.896 108.229 240.36 108.693 240.932 108.693C241.504 108.693 241.968 108.229 241.968 107.657Z" fill="#DDDDDD"/>
<path d="M247.067 102.558C247.067 101.986 246.603 101.522 246.031 101.522C245.459 101.522 244.995 101.986 244.995 102.558C244.995 103.13 245.459 103.594 246.031 103.594C246.603 103.594 247.067 103.13 247.067 102.558Z" fill="#DDDDDD"/>
<path d="M252.18 107.657C252.18 107.085 251.716 106.621 251.144 106.621C250.571 106.621 250.107 107.085 250.107 107.657C250.107 108.229 250.571 108.693 251.144 108.693C251.716 108.693 252.18 108.229 252.18 107.657Z" fill="#DDDDDD"/>
<path d="M195.996 112.769C195.996 112.197 195.532 111.733 194.959 111.733C194.387 111.733 193.923 112.197 193.923 112.769C193.923 113.342 194.387 113.806 194.959 113.806C195.532 113.806 195.996 113.342 195.996 112.769Z" fill="#DDDDDD"/>
<path d="M201.108 117.868C201.108 117.296 200.644 116.832 200.072 116.832C199.5 116.832 199.036 117.296 199.036 117.868C199.036 118.441 199.5 118.905 200.072 118.905C200.644 118.905 201.108 118.441 201.108 117.868Z" fill="#DDDDDD"/>
<path d="M206.207 112.769C206.207 112.196 205.743 111.732 205.171 111.732C204.599 111.732 204.135 112.196 204.135 112.769C204.135 113.341 204.599 113.805 205.171 113.805C205.743 113.805 206.207 113.341 206.207 112.769Z" fill="#DDDDDD"/>
<path d="M211.32 117.868C211.32 117.296 210.856 116.832 210.283 116.832C209.711 116.832 209.247 117.296 209.247 117.868C209.247 118.441 209.711 118.905 210.283 118.905C210.856 118.905 211.32 118.441 211.32 117.868Z" fill="#DDDDDD"/>
<path d="M216.433 112.769C216.433 112.196 215.969 111.732 215.396 111.732C214.824 111.732 214.36 112.196 214.36 112.769C214.36 113.341 214.824 113.805 215.396 113.805C215.969 113.805 216.433 113.341 216.433 112.769Z" fill="#DDDDDD"/>
<path d="M221.531 117.868C221.531 117.296 221.067 116.832 220.495 116.832C219.922 116.832 219.458 117.296 219.458 117.868C219.458 118.441 219.922 118.905 220.495 118.905C221.067 118.905 221.531 118.441 221.531 117.868Z" fill="#DDDDDD"/>
<path d="M226.644 112.769C226.644 112.196 226.18 111.732 225.608 111.732C225.035 111.732 224.571 112.196 224.571 112.769C224.571 113.341 225.035 113.805 225.608 113.805C226.18 113.805 226.644 113.341 226.644 112.769Z" fill="#DDDDDD"/>
<path d="M231.743 117.868C231.743 117.296 231.279 116.832 230.707 116.832C230.134 116.832 229.67 117.296 229.67 117.868C229.67 118.441 230.134 118.905 230.707 118.905C231.279 118.905 231.743 118.441 231.743 117.868Z" fill="#DDDDDD"/>
<path d="M236.855 112.769C236.855 112.196 236.391 111.732 235.819 111.732C235.247 111.732 234.783 112.196 234.783 112.769C234.783 113.341 235.247 113.805 235.819 113.805C236.391 113.805 236.855 113.341 236.855 112.769Z" fill="#DDDDDD"/>
<path d="M241.968 117.868C241.968 117.296 241.504 116.832 240.932 116.832C240.36 116.832 239.896 117.296 239.896 117.868C239.896 118.441 240.36 118.905 240.932 118.905C241.504 118.905 241.968 118.441 241.968 117.868Z" fill="#DDDDDD"/>
<path d="M247.067 112.769C247.067 112.196 246.603 111.732 246.031 111.732C245.459 111.732 244.995 112.196 244.995 112.769C244.995 113.341 245.459 113.805 246.031 113.805C246.603 113.805 247.067 113.341 247.067 112.769Z" fill="#DDDDDD"/>
<path d="M252.18 117.868C252.18 117.296 251.716 116.832 251.144 116.832C250.571 116.832 250.107 117.296 250.107 117.868C250.107 118.441 250.571 118.905 251.144 118.905C251.716 118.905 252.18 118.441 252.18 117.868Z" fill="#DDDDDD"/>
<path d="M195.996 122.981C195.996 122.408 195.532 121.944 194.959 121.944C194.387 121.944 193.923 122.408 193.923 122.981C193.923 123.553 194.387 124.017 194.959 124.017C195.532 124.017 195.996 123.553 195.996 122.981Z" fill="#DDDDDD"/>
<path d="M201.108 128.094C201.108 127.521 200.644 127.057 200.072 127.057C199.5 127.057 199.036 127.521 199.036 128.094C199.036 128.666 199.5 129.13 200.072 129.13C200.644 129.13 201.108 128.666 201.108 128.094Z" fill="#DDDDDD"/>
<path d="M206.207 122.981C206.207 122.408 205.743 121.944 205.171 121.944C204.599 121.944 204.135 122.408 204.135 122.981C204.135 123.553 204.599 124.017 205.171 124.017C205.743 124.017 206.207 123.553 206.207 122.981Z" fill="#DDDDDD"/>
<path d="M211.32 128.094C211.32 127.521 210.856 127.057 210.283 127.057C209.711 127.057 209.247 127.521 209.247 128.094C209.247 128.666 209.711 129.13 210.283 129.13C210.856 129.13 211.32 128.666 211.32 128.094Z" fill="#DDDDDD"/>
<path d="M216.433 122.981C216.433 122.408 215.969 121.944 215.396 121.944C214.824 121.944 214.36 122.408 214.36 122.981C214.36 123.553 214.824 124.017 215.396 124.017C215.969 124.017 216.433 123.553 216.433 122.981Z" fill="#DDDDDD"/>
<path d="M221.531 128.094C221.531 127.521 221.067 127.057 220.495 127.057C219.922 127.057 219.458 127.521 219.458 128.094C219.458 128.666 219.922 129.13 220.495 129.13C221.067 129.13 221.531 128.666 221.531 128.094Z" fill="#DDDDDD"/>
<path d="M226.644 122.981C226.644 122.408 226.18 121.944 225.608 121.944C225.035 121.944 224.571 122.408 224.571 122.981C224.571 123.553 225.035 124.017 225.608 124.017C226.18 124.017 226.644 123.553 226.644 122.981Z" fill="#DDDDDD"/>
<path d="M231.743 128.094C231.743 127.521 231.279 127.057 230.707 127.057C230.134 127.057 229.67 127.521 229.67 128.094C229.67 128.666 230.134 129.13 230.707 129.13C231.279 129.13 231.743 128.666 231.743 128.094Z" fill="#DDDDDD"/>
<path d="M236.855 122.981C236.855 122.408 236.391 121.944 235.819 121.944C235.247 121.944 234.783 122.408 234.783 122.981C234.783 123.553 235.247 124.017 235.819 124.017C236.391 124.017 236.855 123.553 236.855 122.981Z" fill="#DDDDDD"/>
<path d="M241.968 128.094C241.968 127.521 241.504 127.057 240.932 127.057C240.36 127.057 239.896 127.521 239.896 128.094C239.896 128.666 240.36 129.13 240.932 129.13C241.504 129.13 241.968 128.666 241.968 128.094Z" fill="#DDDDDD"/>
<path d="M247.067 122.981C247.067 122.408 246.603 121.944 246.031 121.944C245.459 121.944 244.995 122.408 244.995 122.981C244.995 123.553 245.459 124.017 246.031 124.017C246.603 124.017 247.067 123.553 247.067 122.981Z" fill="#DDDDDD"/>
<path d="M252.18 128.094C252.18 127.521 251.716 127.057 251.144 127.057C250.571 127.057 250.107 127.521 250.107 128.094C250.107 128.666 250.571 129.13 251.144 129.13C251.716 129.13 252.18 128.666 252.18 128.094Z" fill="#DDDDDD"/>
<path d="M195.996 133.193C195.996 132.62 195.532 132.156 194.959 132.156C194.387 132.156 193.923 132.62 193.923 133.193C193.923 133.765 194.387 134.229 194.959 134.229C195.532 134.229 195.996 133.765 195.996 133.193Z" fill="#DDDDDD"/>
<path d="M206.207 133.193C206.207 132.62 205.743 132.156 205.171 132.156C204.599 132.156 204.135 132.62 204.135 133.193C204.135 133.765 204.599 134.229 205.171 134.229C205.743 134.229 206.207 133.765 206.207 133.193Z" fill="#DDDDDD"/>
<path d="M216.433 133.193C216.433 132.62 215.969 132.156 215.396 132.156C214.824 132.156 214.36 132.62 214.36 133.193C214.36 133.765 214.824 134.229 215.396 134.229C215.969 134.229 216.433 133.765 216.433 133.193Z" fill="#DDDDDD"/>
<path d="M226.644 133.193C226.644 132.62 226.18 132.156 225.608 132.156C225.035 132.156 224.571 132.62 224.571 133.193C224.571 133.765 225.035 134.229 225.608 134.229C226.18 134.229 226.644 133.765 226.644 133.193Z" fill="#DDDDDD"/>
<path d="M236.855 133.193C236.855 132.62 236.391 132.156 235.819 132.156C235.247 132.156 234.783 132.62 234.783 133.193C234.783 133.765 235.247 134.229 235.819 134.229C236.391 134.229 236.855 133.765 236.855 133.193Z" fill="#DDDDDD"/>
<path d="M247.067 133.193C247.067 132.62 246.603 132.156 246.031 132.156C245.459 132.156 244.995 132.62 244.995 133.193C244.995 133.765 245.459 134.229 246.031 134.229C246.603 134.229 247.067 133.765 247.067 133.193Z" fill="#DDDDDD"/>
</g>
<path d="M240.921 259.212L319.684 304.11L319.684 214.292L240.921 259.212Z" stroke="#EEEEEE" stroke-opacity="0.8" stroke-width="6" stroke-linecap="round" stroke-linejoin="round"/>
<path d="M851.874 15.3804L804.213 98.289H899.558L851.874 15.3804Z" stroke="#EEEEEE" stroke-opacity="0.8" stroke-width="6" stroke-linecap="round" stroke-linejoin="round"/>
<path d="M480.345 28.424L431.125 0.000139293L431.125 56.834L480.345 28.424Z" fill="#EEEEEE"/>
<path d="M86.1973 8.31885L102.434 23.9886L118.656 8.31885L134.878 23.9886L151.115 8.31885L167.351 23.9886" stroke="#DDDDDD" stroke-width="6" stroke-miterlimit="10"/>
<path d="M86.1973 30.6348L102.434 46.3045L118.656 30.6348L134.878 46.3045L151.115 30.6348L167.351 46.3045" stroke="#DDDDDD" stroke-width="6" stroke-miterlimit="10"/>
<path d="M1078.82 124.323L1095.06 139.992L1111.28 124.323L1127.5 139.992L1143.74 124.323L1159.98 139.992" stroke="#DDDDDD" stroke-width="6" stroke-miterlimit="10"/>
<path d="M1078.82 146.639L1095.06 162.309L1111.28 146.639L1127.5 162.309L1143.74 146.639L1159.98 162.309" stroke="#DDDDDD" stroke-width="6" stroke-miterlimit="10"/>
</g>
</svg>
